# Tiled2Unity generated file. Do not modify by hand.
# Wavefront file for 'TestA_mesh_0001.obj'

# Vertices (Count = 884)
v 0 -48 0
v -48 -48 0
v -48 0 0
v 0 0 0
v -48 -48 0
v -96 -48 0
v -96 0 0
v -48 0 0
v -96 -48 0
v -144 -48 0
v -144 0 0
v -96 0 0
v -144 -48 0
v -192 -48 0
v -192 0 0
v -144 0 0
v -192 -48 0
v -240 -48 0
v -240 0 0
v -192 0 0
v -240 -48 0
v -288 -48 0
v -288 0 0
v -240 0 0
v -288 -48 0
v -336 -48 0
v -336 0 0
v -288 0 0
v -336 -48 0
v -384 -48 0
v -384 0 0
v -336 0 0
v -384 -48 0
v -432 -48 0
v -432 0 0
v -384 0 0
v -432 -48 0
v -480 -48 0
v -480 0 0
v -432 0 0
v -480 -48 0
v -528 -48 0
v -528 0 0
v -480 0 0
v -528 -48 0
v -576 -48 0
v -576 0 0
v -528 0 0
v -576 -48 0
v -624 -48 0
v -624 0 0
v -576 0 0
v -624 -48 0
v -672 -48 0
v -672 0 0
v -624 0 0
v -672 -48 0
v -720 -48 0
v -720 0 0
v -672 0 0
v -720 -48 0
v -768 -48 0
v -768 0 0
v -720 0 0
v -768 -48 0
v -816 -48 0
v -816 0 0
v -768 0 0
v 0 -96 0
v -48 -96 0
v -48 -48 0
v 0 -48 0
v -48 -96 0
v -96 -96 0
v -96 -48 0
v -48 -48 0
v -96 -96 0
v -144 -96 0
v -144 -48 0
v -96 -48 0
v -144 -96 0
v -192 -96 0
v -192 -48 0
v -144 -48 0
v -192 -96 0
v -240 -96 0
v -240 -48 0
v -192 -48 0
v -240 -96 0
v -288 -96 0
v -288 -48 0
v -240 -48 0
v -288 -96 0
v -336 -96 0
v -336 -48 0
v -288 -48 0
v -336 -96 0
v -384 -96 0
v -384 -48 0
v -336 -48 0
v -384 -96 0
v -432 -96 0
v -432 -48 0
v -384 -48 0
v -432 -96 0
v -480 -96 0
v -480 -48 0
v -432 -48 0
v -480 -96 0
v -528 -96 0
v -528 -48 0
v -480 -48 0
v -528 -96 0
v -576 -96 0
v -576 -48 0
v -528 -48 0
v -576 -96 0
v -624 -96 0
v -624 -48 0
v -576 -48 0
v -624 -96 0
v -672 -96 0
v -672 -48 0
v -624 -48 0
v -672 -96 0
v -720 -96 0
v -720 -48 0
v -672 -48 0
v -720 -96 0
v -768 -96 0
v -768 -48 0
v -720 -48 0
v -768 -96 0
v -816 -96 0
v -816 -48 0
v -768 -48 0
v 0 -144 0
v -48 -144 0
v -48 -96 0
v 0 -96 0
v -48 -144 0
v -96 -144 0
v -96 -96 0
v -48 -96 0
v -96 -144 0
v -144 -144 0
v -144 -96 0
v -96 -96 0
v -144 -144 0
v -192 -144 0
v -192 -96 0
v -144 -96 0
v -192 -144 0
v -240 -144 0
v -240 -96 0
v -192 -96 0
v -240 -144 0
v -288 -144 0
v -288 -96 0
v -240 -96 0
v -288 -144 0
v -336 -144 0
v -336 -96 0
v -288 -96 0
v -336 -144 0
v -384 -144 0
v -384 -96 0
v -336 -96 0
v -384 -144 0
v -432 -144 0
v -432 -96 0
v -384 -96 0
v -432 -144 0
v -480 -144 0
v -480 -96 0
v -432 -96 0
v -480 -144 0
v -528 -144 0
v -528 -96 0
v -480 -96 0
v -528 -144 0
v -576 -144 0
v -576 -96 0
v -528 -96 0
v -576 -144 0
v -624 -144 0
v -624 -96 0
v -576 -96 0
v -624 -144 0
v -672 -144 0
v -672 -96 0
v -624 -96 0
v -672 -144 0
v -720 -144 0
v -720 -96 0
v -672 -96 0
v -720 -144 0
v -768 -144 0
v -768 -96 0
v -720 -96 0
v -768 -144 0
v -816 -144 0
v -816 -96 0
v -768 -96 0
v 0 -192 0
v -48 -192 0
v -48 -144 0
v 0 -144 0
v -48 -192 0
v -96 -192 0
v -96 -144 0
v -48 -144 0
v -96 -192 0
v -144 -192 0
v -144 -144 0
v -96 -144 0
v -144 -192 0
v -192 -192 0
v -192 -144 0
v -144 -144 0
v -192 -192 0
v -240 -192 0
v -240 -144 0
v -192 -144 0
v -240 -192 0
v -288 -192 0
v -288 -144 0
v -240 -144 0
v -288 -192 0
v -336 -192 0
v -336 -144 0
v -288 -144 0
v -336 -192 0
v -384 -192 0
v -384 -144 0
v -336 -144 0
v -384 -192 0
v -432 -192 0
v -432 -144 0
v -384 -144 0
v -432 -192 0
v -480 -192 0
v -480 -144 0
v -432 -144 0
v -480 -192 0
v -528 -192 0
v -528 -144 0
v -480 -144 0
v -528 -192 0
v -576 -192 0
v -576 -144 0
v -528 -144 0
v -576 -192 0
v -624 -192 0
v -624 -144 0
v -576 -144 0
v -624 -192 0
v -672 -192 0
v -672 -144 0
v -624 -144 0
v -672 -192 0
v -720 -192 0
v -720 -144 0
v -672 -144 0
v -720 -192 0
v -768 -192 0
v -768 -144 0
v -720 -144 0
v -768 -192 0
v -816 -192 0
v -816 -144 0
v -768 -144 0
v 0 -240 0
v -48 -240 0
v -48 -192 0
v 0 -192 0
v -48 -240 0
v -96 -240 0
v -96 -192 0
v -48 -192 0
v -96 -240 0
v -144 -240 0
v -144 -192 0
v -96 -192 0
v -144 -240 0
v -192 -240 0
v -192 -192 0
v -144 -192 0
v -192 -240 0
v -240 -240 0
v -240 -192 0
v -192 -192 0
v -240 -240 0
v -288 -240 0
v -288 -192 0
v -240 -192 0
v -288 -240 0
v -336 -240 0
v -336 -192 0
v -288 -192 0
v -336 -240 0
v -384 -240 0
v -384 -192 0
v -336 -192 0
v -384 -240 0
v -432 -240 0
v -432 -192 0
v -384 -192 0
v -432 -240 0
v -480 -240 0
v -480 -192 0
v -432 -192 0
v -480 -240 0
v -528 -240 0
v -528 -192 0
v -480 -192 0
v -528 -240 0
v -576 -240 0
v -576 -192 0
v -528 -192 0
v -576 -240 0
v -624 -240 0
v -624 -192 0
v -576 -192 0
v -624 -240 0
v -672 -240 0
v -672 -192 0
v -624 -192 0
v -672 -240 0
v -720 -240 0
v -720 -192 0
v -672 -192 0
v -720 -240 0
v -768 -240 0
v -768 -192 0
v -720 -192 0
v -768 -240 0
v -816 -240 0
v -816 -192 0
v -768 -192 0
v 0 -288 0
v -48 -288 0
v -48 -240 0
v 0 -240 0
v -48 -288 0
v -96 -288 0
v -96 -240 0
v -48 -240 0
v -96 -288 0
v -144 -288 0
v -144 -240 0
v -96 -240 0
v -144 -288 0
v -192 -288 0
v -192 -240 0
v -144 -240 0
v -192 -288 0
v -240 -288 0
v -240 -240 0
v -192 -240 0
v -240 -288 0
v -288 -288 0
v -288 -240 0
v -240 -240 0
v -288 -288 0
v -336 -288 0
v -336 -240 0
v -288 -240 0
v -336 -288 0
v -384 -288 0
v -384 -240 0
v -336 -240 0
v -384 -288 0
v -432 -288 0
v -432 -240 0
v -384 -240 0
v -432 -288 0
v -480 -288 0
v -480 -240 0
v -432 -240 0
v -480 -288 0
v -528 -288 0
v -528 -240 0
v -480 -240 0
v -528 -288 0
v -576 -288 0
v -576 -240 0
v -528 -240 0
v -576 -288 0
v -624 -288 0
v -624 -240 0
v -576 -240 0
v -624 -288 0
v -672 -288 0
v -672 -240 0
v -624 -240 0
v -672 -288 0
v -720 -288 0
v -720 -240 0
v -672 -240 0
v -720 -288 0
v -768 -288 0
v -768 -240 0
v -720 -240 0
v -768 -288 0
v -816 -288 0
v -816 -240 0
v -768 -240 0
v 0 -336 0
v -48 -336 0
v -48 -288 0
v 0 -288 0
v -48 -336 0
v -96 -336 0
v -96 -288 0
v -48 -288 0
v -96 -336 0
v -144 -336 0
v -144 -288 0
v -96 -288 0
v -144 -336 0
v -192 -336 0
v -192 -288 0
v -144 -288 0
v -192 -336 0
v -240 -336 0
v -240 -288 0
v -192 -288 0
v -240 -336 0
v -288 -336 0
v -288 -288 0
v -240 -288 0
v -288 -336 0
v -336 -336 0
v -336 -288 0
v -288 -288 0
v -336 -336 0
v -384 -336 0
v -384 -288 0
v -336 -288 0
v -384 -336 0
v -432 -336 0
v -432 -288 0
v -384 -288 0
v -432 -336 0
v -480 -336 0
v -480 -288 0
v -432 -288 0
v -480 -336 0
v -528 -336 0
v -528 -288 0
v -480 -288 0
v -528 -336 0
v -576 -336 0
v -576 -288 0
v -528 -288 0
v -576 -336 0
v -624 -336 0
v -624 -288 0
v -576 -288 0
v -624 -336 0
v -672 -336 0
v -672 -288 0
v -624 -288 0
v -672 -336 0
v -720 -336 0
v -720 -288 0
v -672 -288 0
v -720 -336 0
v -768 -336 0
v -768 -288 0
v -720 -288 0
v -768 -336 0
v -816 -336 0
v -816 -288 0
v -768 -288 0
v 0 -384 0
v -48 -384 0
v -48 -336 0
v 0 -336 0
v -48 -384 0
v -96 -384 0
v -96 -336 0
v -48 -336 0
v -96 -384 0
v -144 -384 0
v -144 -336 0
v -96 -336 0
v -144 -384 0
v -192 -384 0
v -192 -336 0
v -144 -336 0
v -192 -384 0
v -240 -384 0
v -240 -336 0
v -192 -336 0
v -240 -384 0
v -288 -384 0
v -288 -336 0
v -240 -336 0
v -288 -384 0
v -336 -384 0
v -336 -336 0
v -288 -336 0
v -336 -384 0
v -384 -384 0
v -384 -336 0
v -336 -336 0
v -384 -384 0
v -432 -384 0
v -432 -336 0
v -384 -336 0
v -432 -384 0
v -480 -384 0
v -480 -336 0
v -432 -336 0
v -480 -384 0
v -528 -384 0
v -528 -336 0
v -480 -336 0
v -528 -384 0
v -576 -384 0
v -576 -336 0
v -528 -336 0
v -576 -384 0
v -624 -384 0
v -624 -336 0
v -576 -336 0
v -624 -384 0
v -672 -384 0
v -672 -336 0
v -624 -336 0
v -672 -384 0
v -720 -384 0
v -720 -336 0
v -672 -336 0
v -720 -384 0
v -768 -384 0
v -768 -336 0
v -720 -336 0
v -768 -384 0
v -816 -384 0
v -816 -336 0
v -768 -336 0
v 0 -432 0
v -48 -432 0
v -48 -384 0
v 0 -384 0
v -48 -432 0
v -96 -432 0
v -96 -384 0
v -48 -384 0
v -96 -432 0
v -144 -432 0
v -144 -384 0
v -96 -384 0
v -144 -432 0
v -192 -432 0
v -192 -384 0
v -144 -384 0
v -192 -432 0
v -240 -432 0
v -240 -384 0
v -192 -384 0
v -240 -432 0
v -288 -432 0
v -288 -384 0
v -240 -384 0
v -288 -432 0
v -336 -432 0
v -336 -384 0
v -288 -384 0
v -336 -432 0
v -384 -432 0
v -384 -384 0
v -336 -384 0
v -384 -432 0
v -432 -432 0
v -432 -384 0
v -384 -384 0
v -432 -432 0
v -480 -432 0
v -480 -384 0
v -432 -384 0
v -480 -432 0
v -528 -432 0
v -528 -384 0
v -480 -384 0
v -528 -432 0
v -576 -432 0
v -576 -384 0
v -528 -384 0
v -576 -432 0
v -624 -432 0
v -624 -384 0
v -576 -384 0
v -624 -432 0
v -672 -432 0
v -672 -384 0
v -624 -384 0
v -672 -432 0
v -720 -432 0
v -720 -384 0
v -672 -384 0
v -720 -432 0
v -768 -432 0
v -768 -384 0
v -720 -384 0
v -768 -432 0
v -816 -432 0
v -816 -384 0
v -768 -384 0
v 0 -480 0
v -48 -480 0
v -48 -432 0
v 0 -432 0
v -48 -480 0
v -96 -480 0
v -96 -432 0
v -48 -432 0
v -96 -480 0
v -144 -480 0
v -144 -432 0
v -96 -432 0
v -144 -480 0
v -192 -480 0
v -192 -432 0
v -144 -432 0
v -192 -480 0
v -240 -480 0
v -240 -432 0
v -192 -432 0
v -240 -480 0
v -288 -480 0
v -288 -432 0
v -240 -432 0
v -288 -480 0
v -336 -480 0
v -336 -432 0
v -288 -432 0
v -336 -480 0
v -384 -480 0
v -384 -432 0
v -336 -432 0
v -384 -480 0
v -432 -480 0
v -432 -432 0
v -384 -432 0
v -432 -480 0
v -480 -480 0
v -480 -432 0
v -432 -432 0
v -480 -480 0
v -528 -480 0
v -528 -432 0
v -480 -432 0
v -528 -480 0
v -576 -480 0
v -576 -432 0
v -528 -432 0
v -576 -480 0
v -624 -480 0
v -624 -432 0
v -576 -432 0
v -624 -480 0
v -672 -480 0
v -672 -432 0
v -624 -432 0
v -672 -480 0
v -720 -480 0
v -720 -432 0
v -672 -432 0
v -720 -480 0
v -768 -480 0
v -768 -432 0
v -720 -432 0
v -768 -480 0
v -816 -480 0
v -816 -432 0
v -768 -432 0
v 0 -528 0
v -48 -528 0
v -48 -480 0
v 0 -480 0
v -48 -528 0
v -96 -528 0
v -96 -480 0
v -48 -480 0
v -96 -528 0
v -144 -528 0
v -144 -480 0
v -96 -480 0
v -144 -528 0
v -192 -528 0
v -192 -480 0
v -144 -480 0
v -192 -528 0
v -240 -528 0
v -240 -480 0
v -192 -480 0
v -240 -528 0
v -288 -528 0
v -288 -480 0
v -240 -480 0
v -288 -528 0
v -336 -528 0
v -336 -480 0
v -288 -480 0
v -336 -528 0
v -384 -528 0
v -384 -480 0
v -336 -480 0
v -384 -528 0
v -432 -528 0
v -432 -480 0
v -384 -480 0
v -432 -528 0
v -480 -528 0
v -480 -480 0
v -432 -480 0
v -480 -528 0
v -528 -528 0
v -528 -480 0
v -480 -480 0
v -528 -528 0
v -576 -528 0
v -576 -480 0
v -528 -480 0
v -576 -528 0
v -624 -528 0
v -624 -480 0
v -576 -480 0
v -624 -528 0
v -672 -528 0
v -672 -480 0
v -624 -480 0
v -672 -528 0
v -720 -528 0
v -720 -480 0
v -672 -480 0
v -720 -528 0
v -768 -528 0
v -768 -480 0
v -720 -480 0
v -768 -528 0
v -816 -528 0
v -816 -480 0
v -768 -480 0
v 0 -576 0
v -48 -576 0
v -48 -528 0
v 0 -528 0
v -48 -576 0
v -96 -576 0
v -96 -528 0
v -48 -528 0
v -96 -576 0
v -144 -576 0
v -144 -528 0
v -96 -528 0
v -144 -576 0
v -192 -576 0
v -192 -528 0
v -144 -528 0
v -192 -576 0
v -240 -576 0
v -240 -528 0
v -192 -528 0
v -240 -576 0
v -288 -576 0
v -288 -528 0
v -240 -528 0
v -288 -576 0
v -336 -576 0
v -336 -528 0
v -288 -528 0
v -336 -576 0
v -384 -576 0
v -384 -528 0
v -336 -528 0
v -384 -576 0
v -432 -576 0
v -432 -528 0
v -384 -528 0
v -432 -576 0
v -480 -576 0
v -480 -528 0
v -432 -528 0
v -480 -576 0
v -528 -576 0
v -528 -528 0
v -480 -528 0
v -528 -576 0
v -576 -576 0
v -576 -528 0
v -528 -528 0
v -576 -576 0
v -624 -576 0
v -624 -528 0
v -576 -528 0
v -624 -576 0
v -672 -576 0
v -672 -528 0
v -624 -528 0
v -672 -576 0
v -720 -576 0
v -720 -528 0
v -672 -528 0
v -720 -576 0
v -768 -576 0
v -768 -528 0
v -720 -528 0
v -768 -576 0
v -816 -576 0
v -816 -528 0
v -768 -528 0
v 0 -624 0
v -48 -624 0
v -48 -576 0
v 0 -576 0
v -48 -624 0
v -96 -624 0
v -96 -576 0
v -48 -576 0
v -96 -624 0
v -144 -624 0
v -144 -576 0
v -96 -576 0
v -144 -624 0
v -192 -624 0
v -192 -576 0
v -144 -576 0
v -192 -624 0
v -240 -624 0
v -240 -576 0
v -192 -576 0
v -240 -624 0
v -288 -624 0
v -288 -576 0
v -240 -576 0
v -288 -624 0
v -336 -624 0
v -336 -576 0
v -288 -576 0
v -336 -624 0
v -384 -624 0
v -384 -576 0
v -336 -576 0
v -384 -624 0
v -432 -624 0
v -432 -576 0
v -384 -576 0
v -432 -624 0
v -480 -624 0
v -480 -576 0
v -432 -576 0
v -480 -624 0
v -528 -624 0
v -528 -576 0
v -480 -576 0
v -528 -624 0
v -576 -624 0
v -576 -576 0
v -528 -576 0
v -576 -624 0
v -624 -624 0
v -624 -576 0
v -576 -576 0
v -624 -624 0
v -672 -624 0
v -672 -576 0
v -624 -576 0
v -672 -624 0
v -720 -624 0
v -720 -576 0
v -672 -576 0
v -720 -624 0
v -768 -624 0
v -768 -576 0
v -720 -576 0
v -768 -624 0
v -816 -624 0
v -816 -576 0
v -768 -576 0

# Texture cooridinates (Count = 24)
vt 0 0.9375
vt 0.125 0.9375
vt 0.125 1
vt 0 1
vt 0.125 0.5625
vt 0.125 0.625
vt 0 0.625
vt 0 0.5625
vt 0.125 0.6875
vt 0 0.6875
vt 0.125 0.75
vt 0 0.75
vt 0.25 0.9375
vt 0.25 1
vt 0 0.875
vt 0.125 0.875
vt 0.25 0.875
vt 0 0.8125
vt 0.125 0.8125
vt 0.25 0.8125
vt 0.25 0.5625
vt 0.25 0.625
vt 0.25 0.6875
vt 0.25 0.75

# Normal
vn 0 0 -1

# Mesh description
g TestA_mesh_0001

# Faces
f 1/1/1 2/2/1 3/3/1 4/4/1
f 5/1/1 6/2/1 7/3/1 8/4/1
f 9/1/1 10/2/1 11/3/1 12/4/1
f 13/1/1 14/2/1 15/3/1 16/4/1
f 17/1/1 18/2/1 19/3/1 20/4/1
f 21/1/1 22/2/1 23/3/1 24/4/1
f 25/1/1 26/2/1 27/3/1 28/4/1
f 29/5/1 30/6/1 31/7/1 32/8/1
f 33/6/1 34/9/1 35/10/1 36/7/1
f 37/9/1 38/11/1 39/12/1 40/10/1
f 41/2/1 42/13/1 43/14/1 44/3/1
f 45/2/1 46/13/1 47/14/1 48/3/1
f 49/2/1 50/13/1 51/14/1 52/3/1
f 53/2/1 54/13/1 55/14/1 56/3/1
f 57/2/1 58/13/1 59/14/1 60/3/1
f 61/2/1 62/13/1 63/14/1 64/3/1
f 65/2/1 66/13/1 67/14/1 68/3/1
f 69/15/1 70/16/1 71/2/1 72/1/1
f 73/15/1 74/16/1 75/2/1 76/1/1
f 77/15/1 78/16/1 79/2/1 80/1/1
f 81/15/1 82/16/1 83/2/1 84/1/1
f 85/15/1 86/16/1 87/2/1 88/1/1
f 89/15/1 90/16/1 91/2/1 92/1/1
f 93/15/1 94/16/1 95/2/1 96/1/1
f 97/5/1 98/6/1 99/7/1 100/8/1
f 101/6/1 102/9/1 103/10/1 104/7/1
f 105/9/1 106/11/1 107/12/1 108/10/1
f 109/1/1 110/2/1 111/3/1 112/4/1
f 113/1/1 114/2/1 115/3/1 116/4/1
f 117/1/1 118/2/1 119/3/1 120/4/1
f 121/2/1 122/13/1 123/14/1 124/3/1
f 125/16/1 126/17/1 127/13/1 128/2/1
f 129/16/1 130/17/1 131/13/1 132/2/1
f 133/16/1 134/17/1 135/13/1 136/2/1
f 137/18/1 138/19/1 139/16/1 140/15/1
f 141/18/1 142/19/1 143/16/1 144/15/1
f 145/18/1 146/19/1 147/16/1 148/15/1
f 149/18/1 150/19/1 151/16/1 152/15/1
f 153/18/1 154/19/1 155/16/1 156/15/1
f 157/18/1 158/19/1 159/16/1 160/15/1
f 161/18/1 162/19/1 163/16/1 164/15/1
f 165/5/1 166/6/1 167/7/1 168/8/1
f 169/6/1 170/9/1 171/10/1 172/7/1
f 173/9/1 174/11/1 175/12/1 176/10/1
f 177/1/1 178/2/1 179/3/1 180/4/1
f 181/2/1 182/13/1 183/14/1 184/3/1
f 185/2/1 186/13/1 187/14/1 188/3/1
f 189/2/1 190/13/1 191/14/1 192/3/1
f 193/1/1 194/2/1 195/3/1 196/4/1
f 197/1/1 198/2/1 199/3/1 200/4/1
f 201/2/1 202/13/1 203/14/1 204/3/1
f 205/2/1 206/13/1 207/14/1 208/3/1
f 209/2/1 210/13/1 211/14/1 212/3/1
f 213/2/1 214/13/1 215/14/1 216/3/1
f 217/2/1 218/13/1 219/14/1 220/3/1
f 221/2/1 222/13/1 223/14/1 224/3/1
f 225/2/1 226/13/1 227/14/1 228/3/1
f 229/2/1 230/13/1 231/14/1 232/3/1
f 233/5/1 234/6/1 235/7/1 236/8/1
f 237/6/1 238/9/1 239/10/1 240/7/1
f 241/9/1 242/11/1 243/12/1 244/10/1
f 245/2/1 246/13/1 247/14/1 248/3/1
f 249/2/1 250/13/1 251/14/1 252/3/1
f 253/16/1 254/17/1 255/13/1 256/2/1
f 257/16/1 258/17/1 259/13/1 260/2/1
f 261/2/1 262/13/1 263/14/1 264/3/1
f 265/2/1 266/13/1 267/14/1 268/3/1
f 269/1/1 270/2/1 271/3/1 272/4/1
f 273/16/1 274/17/1 275/13/1 276/2/1
f 277/16/1 278/17/1 279/13/1 280/2/1
f 281/16/1 282/17/1 283/13/1 284/2/1
f 285/16/1 286/17/1 287/13/1 288/2/1
f 289/16/1 290/17/1 291/13/1 292/2/1
f 293/16/1 294/17/1 295/13/1 296/2/1
f 297/16/1 298/17/1 299/13/1 300/2/1
f 301/5/1 302/6/1 303/7/1 304/8/1
f 305/6/1 306/9/1 307/10/1 308/7/1
f 309/9/1 310/11/1 311/12/1 312/10/1
f 313/16/1 314/17/1 315/13/1 316/2/1
f 317/16/1 318/17/1 319/13/1 320/2/1
f 321/19/1 322/20/1 323/17/1 324/16/1
f 325/19/1 326/20/1 327/17/1 328/16/1
f 329/16/1 330/17/1 331/13/1 332/2/1
f 333/16/1 334/17/1 335/13/1 336/2/1
f 337/2/1 338/13/1 339/14/1 340/3/1
f 341/1/1 342/2/1 343/3/1 344/4/1
f 345/1/1 346/2/1 347/3/1 348/4/1
f 349/2/1 350/13/1 351/14/1 352/3/1
f 353/19/1 354/20/1 355/17/1 356/16/1
f 357/19/1 358/20/1 359/17/1 360/16/1
f 361/1/1 362/2/1 363/3/1 364/4/1
f 365/1/1 366/2/1 367/3/1 368/4/1
f 369/5/1 370/6/1 371/7/1 372/8/1
f 373/6/1 374/9/1 375/10/1 376/7/1
f 377/9/1 378/11/1 379/12/1 380/10/1
f 381/1/1 382/2/1 383/3/1 384/4/1
f 385/1/1 386/2/1 387/3/1 388/4/1
f 389/1/1 390/2/1 391/3/1 392/4/1
f 393/1/1 394/2/1 395/3/1 396/4/1
f 397/1/1 398/2/1 399/3/1 400/4/1
f 401/2/1 402/13/1 403/14/1 404/3/1
f 405/16/1 406/17/1 407/13/1 408/2/1
f 409/2/1 410/13/1 411/14/1 412/3/1
f 413/2/1 414/13/1 415/14/1 416/3/1
f 417/2/1 418/13/1 419/14/1 420/3/1
f 421/2/1 422/13/1 423/14/1 424/3/1
f 425/2/1 426/13/1 427/14/1 428/3/1
f 429/2/1 430/13/1 431/14/1 432/3/1
f 433/15/1 434/16/1 435/2/1 436/1/1
f 437/5/1 438/6/1 439/7/1 440/8/1
f 441/6/1 442/9/1 443/10/1 444/7/1
f 445/9/1 446/11/1 447/12/1 448/10/1
f 449/15/1 450/16/1 451/2/1 452/1/1
f 453/15/1 454/16/1 455/2/1 456/1/1
f 457/15/1 458/16/1 459/2/1 460/1/1
f 461/1/1 462/2/1 463/3/1 464/4/1
f 465/2/1 466/13/1 467/14/1 468/3/1
f 469/2/1 470/13/1 471/14/1 472/3/1
f 473/19/1 474/20/1 475/17/1 476/16/1
f 477/16/1 478/17/1 479/13/1 480/2/1
f 481/16/1 482/17/1 483/13/1 484/2/1
f 485/16/1 486/17/1 487/13/1 488/2/1
f 489/16/1 490/17/1 491/13/1 492/2/1
f 493/16/1 494/17/1 495/13/1 496/2/1
f 497/16/1 498/17/1 499/13/1 500/2/1
f 501/2/1 502/13/1 503/14/1 504/3/1
f 505/5/1 506/6/1 507/7/1 508/8/1
f 509/6/1 510/9/1 511/10/1 512/7/1
f 513/9/1 514/11/1 515/12/1 516/10/1
f 517/2/1 518/13/1 519/14/1 520/3/1
f 521/2/1 522/13/1 523/14/1 524/3/1
f 525/2/1 526/13/1 527/14/1 528/3/1
f 529/2/1 530/13/1 531/14/1 532/3/1
f 533/2/1 534/13/1 535/14/1 536/3/1
f 537/16/1 538/17/1 539/13/1 540/2/1
f 541/19/1 542/20/1 543/17/1 544/16/1
f 545/19/1 546/20/1 547/17/1 548/16/1
f 549/19/1 550/20/1 551/17/1 552/16/1
f 553/1/1 554/2/1 555/3/1 556/4/1
f 557/1/1 558/2/1 559/3/1 560/4/1
f 561/1/1 562/2/1 563/3/1 564/4/1
f 565/1/1 566/2/1 567/3/1 568/4/1
f 569/1/1 570/2/1 571/3/1 572/4/1
f 573/5/1 574/6/1 575/7/1 576/8/1
f 577/6/1 578/9/1 579/10/1 580/7/1
f 581/9/1 582/11/1 583/12/1 584/10/1
f 585/1/1 586/2/1 587/3/1 588/4/1
f 589/1/1 590/2/1 591/3/1 592/4/1
f 593/1/1 594/2/1 595/3/1 596/4/1
f 597/2/1 598/13/1 599/14/1 600/3/1
f 601/16/1 602/17/1 603/13/1 604/2/1
f 605/19/1 606/20/1 607/17/1 608/16/1
f 609/19/1 610/20/1 611/17/1 612/16/1
f 613/1/1 614/2/1 615/3/1 616/4/1
f 617/1/1 618/2/1 619/3/1 620/4/1
f 621/15/1 622/16/1 623/2/1 624/1/1
f 625/15/1 626/16/1 627/2/1 628/1/1
f 629/15/1 630/16/1 631/2/1 632/1/1
f 633/15/1 634/16/1 635/2/1 636/1/1
f 637/15/1 638/16/1 639/2/1 640/1/1
f 641/5/1 642/6/1 643/7/1 644/8/1
f 645/6/1 646/9/1 647/10/1 648/7/1
f 649/9/1 650/11/1 651/12/1 652/10/1
f 653/15/1 654/16/1 655/2/1 656/1/1
f 657/15/1 658/16/1 659/2/1 660/1/1
f 661/15/1 662/16/1 663/2/1 664/1/1
f 665/1/1 666/2/1 667/3/1 668/4/1
f 669/1/1 670/2/1 671/3/1 672/4/1
f 673/2/1 674/13/1 675/14/1 676/3/1
f 677/19/1 678/20/1 679/17/1 680/16/1
f 681/15/1 682/16/1 683/2/1 684/1/1
f 685/15/1 686/16/1 687/2/1 688/1/1
f 689/18/1 690/19/1 691/16/1 692/15/1
f 693/18/1 694/19/1 695/16/1 696/15/1
f 697/18/1 698/19/1 699/16/1 700/15/1
f 701/18/1 702/19/1 703/16/1 704/15/1
f 705/18/1 706/19/1 707/16/1 708/15/1
f 709/5/1 710/6/1 711/7/1 712/8/1
f 713/6/1 714/9/1 715/10/1 716/7/1
f 717/9/1 718/11/1 719/12/1 720/10/1
f 721/18/1 722/19/1 723/16/1 724/15/1
f 725/18/1 726/19/1 727/16/1 728/15/1
f 729/18/1 730/19/1 731/16/1 732/15/1
f 733/15/1 734/16/1 735/2/1 736/1/1
f 737/15/1 738/16/1 739/2/1 740/1/1
f 741/1/1 742/2/1 743/3/1 744/4/1
f 745/1/1 746/2/1 747/3/1 748/4/1
f 749/2/1 750/13/1 751/14/1 752/3/1
f 753/2/1 754/13/1 755/14/1 756/3/1
f 757/2/1 758/13/1 759/14/1 760/3/1
f 761/2/1 762/13/1 763/14/1 764/3/1
f 765/2/1 766/13/1 767/14/1 768/3/1
f 769/2/1 770/13/1 771/14/1 772/3/1
f 773/2/1 774/13/1 775/14/1 776/3/1
f 777/5/1 778/6/1 779/7/1 780/8/1
f 781/6/1 782/9/1 783/10/1 784/7/1
f 785/9/1 786/11/1 787/12/1 788/10/1
f 789/2/1 790/13/1 791/14/1 792/3/1
f 793/2/1 794/13/1 795/14/1 796/3/1
f 797/2/1 798/13/1 799/14/1 800/3/1
f 801/18/1 802/19/1 803/16/1 804/15/1
f 805/18/1 806/19/1 807/16/1 808/15/1
f 809/15/1 810/16/1 811/2/1 812/1/1
f 813/1/1 814/2/1 815/3/1 816/4/1
f 817/16/1 818/17/1 819/13/1 820/2/1
f 821/16/1 822/17/1 823/13/1 824/2/1
f 825/16/1 826/17/1 827/13/1 828/2/1
f 829/16/1 830/17/1 831/13/1 832/2/1
f 833/16/1 834/17/1 835/13/1 836/2/1
f 837/16/1 838/17/1 839/13/1 840/2/1
f 841/16/1 842/17/1 843/13/1 844/2/1
f 845/21/1 846/22/1 847/6/1 848/5/1
f 849/22/1 850/23/1 851/9/1 852/6/1
f 853/23/1 854/24/1 855/11/1 856/9/1
f 857/16/1 858/17/1 859/13/1 860/2/1
f 861/16/1 862/17/1 863/13/1 864/2/1
f 865/16/1 866/17/1 867/13/1 868/2/1
f 869/2/1 870/13/1 871/14/1 872/3/1
f 873/2/1 874/13/1 875/14/1 876/3/1
f 877/2/1 878/13/1 879/14/1 880/3/1
f 881/2/1 882/13/1 883/14/1 884/3/1

